<svg width="88" height="117" viewBox="0 0 88 117" fill="none" xmlns="http://www.w3.org/2000/svg">
<path d="M80.0588 19.9294C79.9981 19.9491 58.7774 26.202 58.7171 26.2226C56.4422 27.014 54.9136 29.1641 54.9136 31.5727V41.1388C54.9136 43.0159 56.4352 44.5375 58.3122 44.5375H84.1422C86.0192 44.5375 87.5408 43.0159 87.5408 41.1388V25.2942C87.5408 21.4252 83.7307 18.6849 80.0588 19.9294Z" fill="#FF5E94"/>
<path d="M22.2861 37.7402V101.772C22.2861 109.893 28.8929 116.5 37.0138 116.5H72.8134C80.9343 116.5 87.5411 109.893 87.5411 101.772C87.5411 98.2075 87.5411 39.5285 87.5411 37.7402H22.2861Z" fill="#9DCFFF"/>
<path d="M54.9136 37.7402V116.5H72.8134C80.9341 116.5 87.5411 109.893 87.5411 101.772V37.7402H54.9136Z" fill="#72BBFF"/>
<path d="M39.7927 53.374C37.9156 53.374 36.394 54.8956 36.394 56.7727V97.4669C36.394 99.344 37.9156 100.866 39.7927 100.866C41.6698 100.866 43.1914 99.344 43.1914 97.4669V56.7727C43.1914 54.8956 41.6696 53.374 39.7927 53.374Z" fill="#5A5A5A"/>
<path d="M54.9133 53.374C53.0362 53.374 51.5146 54.8956 51.5146 56.7727V97.4669C51.5146 99.344 53.0362 100.866 54.9133 100.866C56.7904 100.866 58.312 99.344 58.312 97.4669V56.7727C58.312 54.8956 56.7904 53.374 54.9133 53.374Z" fill="#5A5A5A"/>
<path d="M58.3122 56.7737V97.4672C58.3122 99.3434 56.7897 100.866 54.9136 100.866V53.375C56.7897 53.375 58.3122 54.8952 58.3122 56.7737Z" fill="#444444"/>
<path d="M70.0344 53.374C68.1573 53.374 66.6357 54.8956 66.6357 56.7727V97.4669C66.6357 99.344 68.1573 100.866 70.0344 100.866C71.9115 100.866 73.4331 99.344 73.4331 97.4669V56.7727C73.4331 54.8956 71.9115 53.374 70.0344 53.374Z" fill="#444444"/>
<path d="M29.5381 4.59392C29.5381 4.59392 29.5381 4.59392 29.5359 4.59392C26.0613 2.42164 21.376 2.82832 18.3301 5.874V5.87626L12.0815 12.1226L5.83291 18.3712C2.29854 21.9056 2.29854 27.6557 5.83291 31.1878L9.03877 34.3937L13.6403 33.9179L13.8442 29.586L10.6406 26.3824C9.75697 25.4988 9.75697 24.0602 10.6406 23.1788L16.8892 16.9302L23.1355 10.6817H23.1378C23.9735 9.84587 25.409 9.74912 26.3391 10.6794L29.5449 13.8852L33.7477 13.1874L34.3526 9.07986C30.9981 5.72537 30.6347 5.26953 29.5381 4.59392Z" fill="#5A5A5A"/>
<path d="M29.5382 4.59408C29.5382 4.59408 29.5382 4.59408 29.5359 4.59408C26.0702 2.42724 21.3869 2.81987 18.3301 5.87643L12.0815 12.1228L16.8892 16.9304L23.1378 10.6818C23.9729 9.84671 25.4073 9.74748 26.3391 10.6796L29.545 13.8854L34.3526 9.08002C30.8883 5.61565 30.6909 5.32498 29.5382 4.59408Z" fill="#444444"/>
<path d="M57.9148 8.90711L51.8266 2.81892C48.7347 -0.272975 43.7037 -0.272975 40.6115 2.81892L2.77742 40.6528C-0.314478 43.7447 -0.314478 48.7758 2.77742 51.8679L8.86561 57.9561C10.1926 59.2833 12.3447 59.2835 13.6719 57.9561L57.9148 13.7134C59.242 12.3862 59.242 10.2343 57.9148 8.90711Z" fill="#3BA9FF"/>
<path d="M51.8265 2.81909L57.9147 8.90728C59.2412 10.2338 59.2428 12.3855 57.9147 13.7138L35.7938 35.8347L21.6948 21.7357L40.6114 2.81909C43.7036 -0.273031 48.7344 -0.273031 51.8265 2.81909Z" fill="#0081FF"/>
</svg>
