<svg width="88" height="117" viewBox="0 0 88 117" fill="none" xmlns="http://www.w3.org/2000/svg">
<path d="M80.0593 19.9294C79.9985 19.9491 58.7778 26.202 58.7175 26.2226C56.4426 27.014 54.914 29.1641 54.914 31.5727V41.1388C54.914 43.0159 56.4356 44.5375 58.3127 44.5375H84.1426C86.0197 44.5375 87.5413 43.0159 87.5413 41.1388V25.2942C87.5413 21.4252 83.7312 18.6849 80.0593 19.9294Z" fill="#FF5E94"/>
<path d="M22.2865 37.7402V101.772C22.2865 109.893 28.8933 116.5 37.0142 116.5H72.8138C80.9347 116.5 87.5415 109.893 87.5415 101.772C87.5415 98.2075 87.5415 39.5285 87.5415 37.7402H22.2865Z" fill="#9DCFFF"/>
<path d="M54.914 37.7402V116.5H72.8138C80.9345 116.5 87.5415 109.893 87.5415 101.772V37.7402H54.914Z" fill="#72BBFF"/>
<path d="M39.793 53.374C37.9159 53.374 36.3943 54.8956 36.3943 56.7727V97.4669C36.3943 99.344 37.9159 100.866 39.793 100.866C41.6701 100.866 43.1917 99.344 43.1917 97.4669V56.7727C43.1917 54.8956 41.6699 53.374 39.793 53.374Z" fill="#5A5A5A"/>
<path d="M54.9138 53.374C53.0367 53.374 51.5151 54.8956 51.5151 56.7727V97.4669C51.5151 99.344 53.0367 100.866 54.9138 100.866C56.7909 100.866 58.3125 99.344 58.3125 97.4669V56.7727C58.3125 54.8956 56.7909 53.374 54.9138 53.374Z" fill="#5A5A5A"/>
<path d="M58.3124 56.7737V97.4672C58.3124 99.3434 56.7899 100.866 54.9138 100.866V53.375C56.7899 53.375 58.3124 54.8952 58.3124 56.7737Z" fill="#444444"/>
<path d="M70.0348 53.374C68.1577 53.374 66.6361 54.8956 66.6361 56.7727V97.4669C66.6361 99.344 68.1577 100.866 70.0348 100.866C71.9118 100.866 73.4334 99.344 73.4334 97.4669V56.7727C73.4334 54.8956 71.9118 53.374 70.0348 53.374Z" fill="#444444"/>
<path d="M29.5386 4.59441C29.5386 4.59441 29.5386 4.59441 29.5363 4.59441C26.0617 2.42213 21.3764 2.82881 18.3305 5.87449V5.87675L12.0819 12.1231L5.83334 18.3717C2.29896 21.906 2.29896 27.6562 5.83334 31.1883L9.0392 34.3942L13.6407 33.9184L13.8446 29.5865L10.641 26.3829C9.7574 25.4993 9.7574 24.0607 10.641 23.1793L16.8896 16.9307L23.1359 10.6821H23.1382C23.974 9.84635 25.4095 9.74961 26.3395 10.6799L29.5454 13.8857L33.7481 13.1879L34.353 9.08035C30.9985 5.72586 30.6351 5.27002 29.5386 4.59441Z" fill="#5A5A5A"/>
<path d="M29.5385 4.5936C29.5385 4.5936 29.5385 4.5936 29.5363 4.5936C26.0706 2.42675 21.3873 2.81939 18.3305 5.87594L12.0819 12.1223L16.8896 16.9299L23.1382 10.6813C23.9733 9.84622 25.4076 9.74699 26.3395 10.6791L29.5453 13.8849L34.353 9.07953C30.8886 5.61517 30.6913 5.32449 29.5385 4.5936Z" fill="#444444"/>
<path d="M57.915 8.90711L51.8269 2.81892C48.735 -0.272975 43.7039 -0.272975 40.6118 2.81892L2.77766 40.6528C-0.314234 43.7447 -0.314234 48.7758 2.77766 51.8679L8.86585 57.9561C10.1928 59.2833 12.3449 59.2835 13.6721 57.9561L57.915 13.7134C59.2422 12.3862 59.2422 10.2343 57.915 8.90711Z" fill="#3BA9FF"/>
<path d="M51.8266 2.81909L57.9148 8.90728C59.2413 10.2338 59.2429 12.3855 57.9148 13.7138L35.7939 35.8347L21.6949 21.7357L40.6116 2.81909C43.7037 -0.273031 48.7345 -0.273031 51.8266 2.81909Z" fill="#0081FF"/>
</svg>
