<svg xmlns="http://www.w3.org/2000/svg" xmlns:xlink="http://www.w3.org/1999/xlink" width="130" zoomAndPan="magnify" viewBox="0 0 97.5 30.000001" height="40" preserveAspectRatio="xMidYMid meet" version="1.2"><defs><clipPath id="1566e63207"><path d="M 80 3 L 95.683594 3 L 95.683594 26 L 80 26 Z M 80 3 "/></clipPath></defs><g id="c58b61fc13"><g style="fill:#ffffff;fill-opacity:1;"><g transform="translate(4.233869, 25.675115)"><path style="stroke:none" d="M 3.640625 -22.609375 L 9.609375 -22.609375 C 11.410156 -22.609375 12.5625 -22.023438 13.0625 -20.859375 C 13.5625 -19.691406 13.5625 -17.984375 13.0625 -15.734375 C 12.53125 -13.484375 11.789062 -11.789062 10.84375 -10.65625 C 9.894531 -9.519531 8.535156 -8.953125 6.765625 -8.953125 L 4.921875 -8.953125 L 2.875 0 L -1.578125 0 Z M 6.140625 -13.03125 C 6.679688 -13.03125 7.097656 -13.128906 7.390625 -13.328125 C 7.691406 -13.523438 7.925781 -13.8125 8.09375 -14.1875 C 8.257812 -14.570312 8.429688 -15.113281 8.609375 -15.8125 C 8.816406 -16.757812 8.863281 -17.441406 8.75 -17.859375 C 8.632812 -18.285156 8.265625 -18.5 7.640625 -18.5 L 7.140625 -18.5 L 5.875 -13.03125 Z M 6.140625 -13.03125 "/></g></g><g style="fill:#ffffff;fill-opacity:1;"><g transform="translate(17.310291, 25.675115)"><path style="stroke:none" d="M 3.640625 0.203125 C 1.773438 0.203125 0.515625 -0.320312 -0.140625 -1.375 C -0.796875 -2.425781 -0.890625 -3.984375 -0.421875 -6.046875 L 3.40625 -22.609375 L 7.796875 -22.609375 L 4 -6.234375 C 3.84375 -5.515625 3.785156 -4.953125 3.828125 -4.546875 C 3.878906 -4.148438 4.128906 -3.953125 4.578125 -3.953125 C 5.035156 -3.953125 5.382812 -4.144531 5.625 -4.53125 C 5.863281 -4.925781 6.0625 -5.492188 6.21875 -6.234375 L 10 -22.609375 L 14.390625 -22.609375 L 10.578125 -6.046875 C 10.109375 -3.984375 9.296875 -2.425781 8.140625 -1.375 C 6.992188 -0.320312 5.492188 0.203125 3.640625 0.203125 Z M 3.640625 0.203125 "/></g></g><g style="fill:#ffffff;fill-opacity:1;"><g transform="translate(30.43933, 25.675115)"><path style="stroke:none" d="M 3.640625 -22.609375 L 10.578125 -22.609375 C 11.679688 -22.609375 12.476562 -22.359375 12.96875 -21.859375 C 13.46875 -21.359375 13.71875 -20.65625 13.71875 -19.75 C 13.71875 -18.84375 13.554688 -17.6875 13.234375 -16.28125 C 12.941406 -15 12.546875 -14 12.046875 -13.28125 C 11.546875 -12.5625 10.847656 -12.0625 9.953125 -11.78125 C 10.597656 -11.644531 11.015625 -11.304688 11.203125 -10.765625 C 11.390625 -10.222656 11.375 -9.484375 11.15625 -8.546875 L 9.140625 0 L 4.71875 0 L 6.734375 -8.84375 C 6.898438 -9.46875 6.875 -9.867188 6.65625 -10.046875 C 6.445312 -10.222656 6.019531 -10.3125 5.375 -10.3125 L 3 0 L -1.578125 0 Z M 7.40625 -14.234375 C 8.03125 -14.234375 8.5 -14.914062 8.8125 -16.28125 C 8.957031 -16.882812 9.035156 -17.332031 9.046875 -17.625 C 9.054688 -17.925781 9.003906 -18.132812 8.890625 -18.25 C 8.773438 -18.363281 8.582031 -18.421875 8.3125 -18.421875 L 7.265625 -18.421875 L 6.3125 -14.234375 Z M 7.40625 -14.234375 "/></g></g><g style="fill:#ffffff;fill-opacity:1;"><g transform="translate(43.647299, 25.675115)"><path style="stroke:none" d="M -1.578125 0 L 3.640625 -22.609375 L 12.6875 -22.609375 L 11.6875 -18.234375 L 7.234375 -18.234375 L 6.21875 -13.84375 L 10.484375 -13.84375 L 9.5 -9.578125 L 5.234375 -9.578125 L 4.03125 -4.390625 L 8.765625 -4.390625 L 7.765625 0 Z M -1.578125 0 "/></g></g><g style="fill:#ff1616;fill-opacity:1;"><g transform="translate(55.153728, 25.675115)"><path style="stroke:none" d="M 3.640625 0.203125 C 1.984375 0.203125 0.78125 -0.3125 0.03125 -1.34375 C -0.71875 -2.375 -0.882812 -3.796875 -0.46875 -5.609375 L 1.921875 -16.03125 C 2.453125 -18.269531 3.296875 -19.957031 4.453125 -21.09375 C 5.609375 -22.238281 7.144531 -22.8125 9.0625 -22.8125 C 10.726562 -22.8125 11.960938 -22.351562 12.765625 -21.4375 C 13.578125 -20.53125 13.78125 -19.21875 13.375 -17.5 L 12.484375 -13.609375 L 7.984375 -13.609375 L 8.765625 -16.9375 C 8.910156 -17.59375 8.929688 -18.039062 8.828125 -18.28125 C 8.734375 -18.53125 8.492188 -18.65625 8.109375 -18.65625 C 7.703125 -18.65625 7.390625 -18.515625 7.171875 -18.234375 C 6.953125 -17.953125 6.78125 -17.539062 6.65625 -17 L 4.03125 -5.65625 C 3.90625 -5.0625 3.894531 -4.628906 4 -4.359375 C 4.101562 -4.085938 4.332031 -3.953125 4.6875 -3.953125 C 5.382812 -3.953125 5.867188 -4.519531 6.140625 -5.65625 L 7.078125 -9.734375 L 11.640625 -9.734375 L 10.65625 -5.46875 C 9.78125 -1.6875 7.441406 0.203125 3.640625 0.203125 Z M 3.640625 0.203125 "/></g></g><g style="fill:#ff1616;fill-opacity:1;"><g transform="translate(68.282767, 25.675115)"><path style="stroke:none" d="M -2.171875 0 L 5.21875 -22.609375 L 12.875 -22.609375 L 9.8125 0 L 5.53125 0 L 6.0625 -3.65625 L 3.328125 -3.65625 L 2.21875 0 Z M 4.5 -7.265625 L 6.5625 -7.265625 L 8.1875 -18.765625 L 7.984375 -18.765625 Z M 4.5 -7.265625 "/></g></g><g clip-rule="nonzero" clip-path="url(#1566e63207)"><g style="fill:#ff1616;fill-opacity:1;"><g transform="translate(81.701215, 25.675115)"><path style="stroke:none" d="M 3.640625 -22.609375 L 10.578125 -22.609375 C 11.679688 -22.609375 12.476562 -22.359375 12.96875 -21.859375 C 13.46875 -21.359375 13.71875 -20.65625 13.71875 -19.75 C 13.71875 -18.84375 13.554688 -17.6875 13.234375 -16.28125 C 12.941406 -15 12.546875 -14 12.046875 -13.28125 C 11.546875 -12.5625 10.847656 -12.0625 9.953125 -11.78125 C 10.597656 -11.644531 11.015625 -11.304688 11.203125 -10.765625 C 11.390625 -10.222656 11.375 -9.484375 11.15625 -8.546875 L 9.140625 0 L 4.71875 0 L 6.734375 -8.84375 C 6.898438 -9.46875 6.875 -9.867188 6.65625 -10.046875 C 6.445312 -10.222656 6.019531 -10.3125 5.375 -10.3125 L 3 0 L -1.578125 0 Z M 7.40625 -14.234375 C 8.03125 -14.234375 8.5 -14.914062 8.8125 -16.28125 C 8.957031 -16.882812 9.035156 -17.332031 9.046875 -17.625 C 9.054688 -17.925781 9.003906 -18.132812 8.890625 -18.25 C 8.773438 -18.363281 8.582031 -18.421875 8.3125 -18.421875 L 7.265625 -18.421875 L 6.3125 -14.234375 Z M 7.40625 -14.234375 "/></g></g></g></g></svg>