<svg width="26" height="27" viewBox="0 0 26 27" fill="none" xmlns="http://www.w3.org/2000/svg">
<path d="M8.33333 15.4583C9.13875 15.4583 9.79167 14.8054 9.79167 14C9.79167 13.1945 9.13875 12.5416 8.33333 12.5416C7.52792 12.5416 6.875 13.1945 6.875 14C6.875 14.8054 7.52792 15.4583 8.33333 15.4583Z" fill="black"/>
<path d="M12.9998 15.4583C13.8053 15.4583 14.4582 14.8054 14.4582 14C14.4582 13.1945 13.8053 12.5416 12.9998 12.5416C12.1944 12.5416 11.5415 13.1945 11.5415 14C11.5415 14.8054 12.1944 15.4583 12.9998 15.4583Z" fill="black"/>
<path d="M17.6668 15.4583C18.4722 15.4583 19.1252 14.8054 19.1252 14C19.1252 13.1945 18.4722 12.5416 17.6668 12.5416C16.8614 12.5416 16.2085 13.1945 16.2085 14C16.2085 14.8054 16.8614 15.4583 17.6668 15.4583Z" fill="black"/>
<path d="M13.0001 26.0166C10.8972 26.0302 8.82551 25.5082 6.98007 24.5C6.9431 24.4846 6.90345 24.4766 6.8634 24.4766C6.82335 24.4766 6.7837 24.4846 6.74673 24.5L2.6284 25.6666C2.37634 25.7468 2.10712 25.7564 1.85001 25.6943C1.5929 25.6322 1.35774 25.5007 1.1701 25.3143C0.982466 25.1279 0.849534 24.8936 0.785763 24.6369C0.721991 24.3802 0.729821 24.1109 0.808401 23.8583L2.04507 19.7166C2.07192 19.6452 2.07192 19.5664 2.04507 19.495C0.780287 17.1833 0.275718 14.5321 0.602973 11.9175C0.930228 9.30287 2.07268 6.85775 3.86818 4.92916C5.66369 3.00058 8.02101 1.6865 10.6056 1.17345C13.1902 0.660395 15.8707 0.974427 18.2667 2.07098C20.6627 3.16752 22.6525 4.99088 23.9536 7.28224C25.2547 9.57361 25.8011 12.2166 25.5151 14.836C25.2292 17.4555 24.1255 19.9183 22.3607 21.875C20.5958 23.8317 18.2596 25.1828 15.6834 25.7366C14.8007 25.9201 13.9017 26.0139 13.0001 26.0166ZM6.8284 22.6683C7.17476 22.673 7.5149 22.7611 7.82007 22.925C9.32986 23.753 11.0159 24.2076 12.7373 24.251C14.4586 24.2944 16.1654 23.9253 17.715 23.1744C19.2646 22.4236 20.612 21.3128 21.6447 19.9349C22.6774 18.557 23.3654 16.952 23.6512 15.254C23.937 13.5559 23.8123 11.8141 23.2876 10.1741C22.7628 8.53408 21.8533 7.04344 20.6348 5.82669C19.4164 4.60994 17.9245 3.70241 16.2838 3.17993C14.643 2.65744 12.9011 2.53516 11.2034 2.8233C9.50247 3.1059 7.89426 3.79281 6.51405 4.82627C5.13383 5.85973 4.02197 7.20952 3.27197 8.76211C2.52197 10.3147 2.15577 12.0247 2.20416 13.7483C2.25256 15.4718 2.71413 17.1586 3.55007 18.6666C3.68151 18.9047 3.76463 19.1664 3.79466 19.4367C3.82469 19.707 3.80104 19.9805 3.72507 20.2416L2.64007 23.8466L6.24507 22.7616C6.43388 22.7021 6.63043 22.6706 6.8284 22.6683Z" fill="black"/>
</svg>
