<svg width="20" height="20" viewBox="0 0 20 20" fill="none" xmlns="http://www.w3.org/2000/svg">
<path d="M12.4997 1.66663H4.99967C4.30801 1.66663 3.71634 2.08329 3.46634 2.68329L0.949674 8.55829C0.874674 8.74996 0.833008 8.94996 0.833008 9.16663V10.8333C0.833008 11.75 1.58301 12.5 2.49967 12.5H7.75801L6.96634 16.3083L6.94134 16.575C6.94134 16.9166 7.08301 17.2333 7.30801 17.4583L8.19134 18.3333L13.683 12.8416C13.983 12.5416 14.1663 12.125 14.1663 11.6666V3.33329C14.1663 2.41663 13.4163 1.66663 12.4997 1.66663ZM12.4997 11.6666L8.88301 15.2833L9.99967 10.8333H2.49967V9.16663L4.99967 3.33329H12.4997V11.6666ZM15.833 1.66663H19.1663V11.6666H15.833V1.66663Z" fill="#767C8C"/>
</svg>
