<svg width="25" height="24" viewBox="0 0 25 24" fill="none" xmlns="http://www.w3.org/2000/svg">
<path d="M11.8872 16.8783C11.8872 17.1711 12.0035 17.4518 12.2105 17.6588C12.4175 17.8658 12.6983 17.9821 12.9911 17.9821C13.2838 17.9821 13.5646 17.8658 13.7716 17.6588C13.9786 17.4518 14.0949 17.1711 14.0949 16.8783V12.0949H18.8783C19.1711 12.0949 19.4518 11.9786 19.6588 11.7716C19.8658 11.5646 19.9821 11.2838 19.9821 10.9911C19.9821 10.6983 19.8658 10.4175 19.6588 10.2105C19.4518 10.0035 19.1711 9.88722 18.8783 9.88722H14.0949V5.10385C14.0949 4.81109 13.9786 4.53032 13.7716 4.32331C13.5646 4.1163 13.2838 4 12.9911 4C12.6983 4 12.4175 4.1163 12.2105 4.32331C12.0035 4.53032 11.8872 4.81109 11.8872 5.10385V9.88722H7.10385C6.81109 9.88722 6.53032 10.0035 6.32331 10.2105C6.1163 10.4175 6 10.6983 6 10.9911C6 11.2838 6.1163 11.5646 6.32331 11.7716C6.53032 11.9786 6.81109 12.0949 7.10385 12.0949H11.8872V16.8783Z" fill="white"/>
</svg>
