<svg width="24" height="24" viewBox="0 0 24 24" fill="none" xmlns="http://www.w3.org/2000/svg">
<path fill-rule="evenodd" clip-rule="evenodd" d="M8.2209 1.5C7.53742 1.5 6.89097 1.8107 6.46398 2.34444L4.24304 5.12061C3.92388 5.51956 3.75 6.01526 3.75 6.52617V20.25C3.75 21.4927 4.75736 22.5 6 22.5H18C19.2427 22.5 20.25 21.4927 20.25 20.25V3.75C20.25 2.50736 19.2427 1.5 18 1.5H8.2209ZM9.21968 11.0303C8.9268 10.7374 8.9268 10.2626 9.21968 9.96968L11.4697 7.71968C11.7626 7.42678 12.2374 7.42678 12.5303 7.71968L14.7803 9.96968C15.0732 10.2626 15.0732 10.7374 14.7803 11.0303C14.4874 11.3232 14.0126 11.3232 13.7197 11.0303L12.75 10.0606V13.5C12.75 13.9142 12.4142 14.25 12 14.25C11.5858 14.25 11.25 13.9142 11.25 13.5V10.0606L10.2803 11.0303C9.98745 11.3232 9.51255 11.3232 9.21968 11.0303ZM15.75 16.5C16.1642 16.5 16.5 16.1642 16.5 15.75C16.5 15.3358 16.1642 15 15.75 15H8.25C7.83577 15 7.5 15.3358 7.5 15.75C7.5 16.1642 7.83577 16.5 8.25 16.5H15.75Z" fill="black"/>
</svg>
