<svg width="20" height="20" viewBox="0 0 20 20" fill="none" xmlns="http://www.w3.org/2000/svg">
<path d="M16.4749 12.6265L12.9404 11.1806C13.4857 10.5965 13.8595 9.85047 13.9807 9.0234H14.6875C15.6998 9.0234 16.5234 8.1998 16.5234 7.18746C16.5234 6.57914 16.2258 6.03926 15.7688 5.70504C15.8541 5.42707 15.8984 5.13621 15.8984 4.84375V0.585938C15.8984 0.262344 15.6361 0 15.3125 0H8.92645C8.04207 0 7.20359 0.426992 6.68348 1.14215L6.56406 1.30637C5.18059 1.46141 4.10156 2.63832 4.10156 4.0625V5.80926C3.71879 6.14598 3.47656 6.63883 3.47656 7.1875C3.47656 8.19984 4.30016 9.02344 5.3125 9.02344H6.01937C6.14059 9.85051 6.51434 10.5965 7.05961 11.1807L3.52516 12.6266C1.97691 13.2599 0.976562 14.75 0.976562 16.4227V19.4141C0.976562 19.7377 1.23891 20 1.5625 20H18.4375C18.7611 20 19.0234 19.7377 19.0234 19.4141V16.4227C19.0234 14.75 18.0231 13.2599 16.4749 12.6265ZM14.7266 18.8281H5.27344V17.1094C5.27344 16.7863 5.53629 16.5234 5.85938 16.5234H14.1406C14.4637 16.5234 14.7266 16.7863 14.7266 17.1094V18.8281ZM13.4766 15.3516H6.21094V12.7939L7.85156 12.1227V12.5C7.85156 13.6846 8.81535 14.6484 10 14.6484C11.1846 14.6484 12.1484 13.6846 12.1484 12.5V12.1228L13.4766 12.6661V15.3516ZM9.02344 12.3409C9.33621 12.4191 9.66328 12.4609 10 12.4609C10.3367 12.4609 10.6638 12.4191 10.9766 12.3409V12.5C10.9766 13.0385 10.5385 13.4766 10 13.4766C9.46152 13.4766 9.02344 13.0385 9.02344 12.5V12.3409ZM10 11.2891C8.42766 11.2891 7.14844 10.0098 7.14844 8.4375V5.27441C7.34652 5.28027 7.54281 5.31207 7.73289 5.3691L8.27902 5.53293C9.78211 5.98387 11.4017 5.90316 12.8516 5.30742V8.4375C12.8516 10.0098 11.5723 11.2891 10 11.2891ZM14.6875 7.85156H14.0234V6.52344H14.6875C15.0537 6.52344 15.3516 6.82133 15.3516 7.1875C15.3516 7.55367 15.0537 7.85156 14.6875 7.85156ZM5.27344 4.0625C5.27344 3.17941 5.99191 2.46094 6.875 2.46094C7.06246 2.46094 7.23859 2.37125 7.34887 2.21965L7.63121 1.83145C7.93152 1.41844 8.41574 1.17188 8.92645 1.17188H14.7266V4.84375C14.7266 5.01633 14.7005 5.18762 14.6512 5.35156H14.0234V5.20605C14.0234 4.59707 13.528 4.10156 12.9189 4.10156C12.7686 4.10156 12.6222 4.1316 12.4839 4.19086C11.2623 4.71434 9.88867 4.79234 8.61578 4.41051L8.06969 4.24668C7.74879 4.15039 7.41617 4.10156 7.08109 4.10156C6.47203 4.10156 5.97656 4.59707 5.97656 5.20605V5.35156H5.3125C5.29941 5.35156 5.28648 5.3523 5.27344 5.35254V4.0625ZM4.64844 7.1875C4.64844 6.82133 4.94633 6.52344 5.3125 6.52344H5.97656V7.85156H5.3125C4.94633 7.85156 4.64844 7.55367 4.64844 7.1875ZM2.14844 16.4227C2.14844 15.2279 2.86297 14.1636 3.96883 13.7111L5.03906 13.2733V15.5554C4.48203 15.8506 4.10156 16.4363 4.10156 17.1094V18.8281H2.14844V16.4227ZM17.8516 18.8281H15.8984V17.1094C15.8984 16.3166 15.3709 15.6451 14.6484 15.4266V13.1455L16.0311 13.7111C17.137 14.1636 17.8516 15.2279 17.8516 16.4227V18.8281Z" fill="black"/>
<path d="M10.3629 8.85099C10.1356 8.96458 9.8642 8.96458 9.63694 8.85099C9.34752 8.70618 8.99557 8.82356 8.85081 9.11302C8.70608 9.40243 8.82342 9.75442 9.11284 9.89911C9.39053 10.038 9.69522 10.1074 9.99987 10.1074C10.3045 10.1074 10.6092 10.038 10.8869 9.89911C11.1764 9.75442 11.2937 9.40243 11.1489 9.11302C11.0042 8.82356 10.6523 8.70614 10.3629 8.85099Z" fill="black"/>
</svg>
