<svg width="20" height="20" viewBox="0 0 20 20" fill="none" xmlns="http://www.w3.org/2000/svg">
<path d="M10 14.1406C9.03076 14.1406 8.24219 14.9292 8.24219 15.8984C8.24219 16.8677 9.03076 17.6562 10 17.6562C10.9692 17.6562 11.7578 16.8677 11.7578 15.8984C11.7578 14.9292 10.9692 14.1406 10 14.1406ZM10 16.4844C9.67697 16.4844 9.41406 16.2215 9.41406 15.8984C9.41406 15.5754 9.67697 15.3125 10 15.3125C10.323 15.3125 10.5859 15.5754 10.5859 15.8984C10.5859 16.2215 10.323 16.4844 10 16.4844Z" fill="black"/>
<path d="M14.1016 15.8984C14.1016 16.2221 13.8393 16.4844 13.5156 16.4844C13.192 16.4844 12.9297 16.2221 12.9297 15.8984C12.9297 15.5748 13.192 15.3125 13.5156 15.3125C13.8393 15.3125 14.1016 15.5748 14.1016 15.8984Z" fill="black"/>
<path d="M7.07031 15.8984C7.07031 16.2221 6.80801 16.4844 6.48438 16.4844C6.16074 16.4844 5.89844 16.2221 5.89844 15.8984C5.89844 15.5748 6.16074 15.3125 6.48438 15.3125C6.80801 15.3125 7.07031 15.5748 7.07031 15.8984Z" fill="black"/>
<path d="M3.43781 14.287C2.79694 14.5667 2.38281 15.1993 2.38281 15.8984C2.38281 16.5976 2.79694 17.2302 3.43781 17.5099L8.36029 19.659C8.87863 19.8853 9.43039 20 10 20C10.5696 20 11.1214 19.8853 11.6399 19.659L16.5622 17.5099C17.2031 17.2302 17.6172 16.5976 17.6172 15.8984C17.6172 15.1993 17.2031 14.5667 16.5622 14.287L14.1016 13.2127V10.5469H14.6875C15.0111 10.5469 15.2734 10.2846 15.2734 9.96094V5.27344C15.2734 4.9498 15.0111 4.6875 14.6875 4.6875H14.1016V2.92969C14.1016 2.60605 13.8393 2.34375 13.5156 2.34375H10.5859V1.17188H12.3438C12.6674 1.17188 12.9297 0.909576 12.9297 0.585938C12.9297 0.262299 12.6674 0 12.3438 0C12.083 0 7.91565 0 7.65625 0C7.33261 0 7.07031 0.262299 7.07031 0.585938V2.34375H6.48438C6.16074 2.34375 5.89844 2.60605 5.89844 2.92969V4.6875H5.3125C4.98886 4.6875 4.72656 4.9498 4.72656 5.27344V9.96094C4.72656 10.2846 4.98886 10.5469 5.3125 10.5469H5.89844V13.2127L3.43781 14.287ZM16.0933 15.3609C16.3072 15.4543 16.4453 15.6653 16.4453 15.8984C16.4453 16.1316 16.3072 16.3426 16.0933 16.436L11.171 18.5849C10.8012 18.7463 10.4073 18.8281 10 18.8281C9.59274 18.8281 9.19876 18.7463 8.82904 18.5849L3.90671 16.436C3.69278 16.3426 3.55469 16.1316 3.55469 15.8984C3.55469 15.6653 3.69278 15.4543 3.90671 15.3609C4.60007 15.0583 8.14117 13.5123 8.82904 13.212C9.19876 13.0505 9.59274 12.9688 10 12.9688C10.4073 12.9688 10.8012 13.0505 11.171 13.212C11.859 13.5123 15.3999 15.0583 16.0933 15.3609ZM5.89844 9.375V8.20312H14.1016V9.375H5.89844ZM8.24219 1.17188H9.41406V2.34375H8.24219V1.17188ZM7.07031 3.51562H12.9297V4.6875H7.07031V3.51562ZM14.1016 5.85938V7.03125H5.89844V5.85938H14.1016ZM7.07031 10.5469H12.9297V12.7011L11.6397 12.1379C11.1214 11.9116 10.5696 11.7969 10 11.7969C9.43039 11.7969 8.87863 11.9116 8.36014 12.1379L7.07031 12.7011V10.5469Z" fill="black"/>
</svg>
