<svg width="24" height="32" viewBox="0 0 24 32" fill="none" xmlns="http://www.w3.org/2000/svg">
<path d="M9 10.1282C9 9.82899 9.11853 9.54202 9.32951 9.33044C9.54048 9.11886 9.82663 9 10.125 9H16.875C17.1734 9 17.4595 9.11886 17.6705 9.33044C17.8815 9.54202 18 9.82899 18 10.1282C18 10.4274 17.8815 10.7144 17.6705 10.926C17.4595 11.1375 17.1734 11.2564 16.875 11.2564H10.125C9.82663 11.2564 9.54048 11.1375 9.32951 10.926C9.11853 10.7144 9 10.4274 9 10.1282ZM9 13.5128C9 13.2884 9.0889 13.0732 9.24713 12.9145C9.40536 12.7558 9.61997 12.6667 9.84375 12.6667H11.25C11.4738 12.6667 11.6884 12.7558 11.8466 12.9145C12.0049 13.0732 12.0938 13.2884 12.0938 13.5128C12.0938 13.7372 12.0049 13.9525 11.8466 14.1111C11.6884 14.2698 11.4738 14.359 11.25 14.359H9.84375C9.61997 14.359 9.40536 14.2698 9.24713 14.1111C9.0889 13.9525 9 13.7372 9 13.5128ZM9 16.0513C9 15.8269 9.0889 15.6116 9.24713 15.453C9.40536 15.2943 9.61997 15.2051 9.84375 15.2051H11.25C11.4738 15.2051 11.6884 15.2943 11.8466 15.453C12.0049 15.6116 12.0938 15.8269 12.0938 16.0513C12.0938 16.2757 12.0049 16.4909 11.8466 16.6496C11.6884 16.8083 11.4738 16.8974 11.25 16.8974H9.84375C9.61997 16.8974 9.40536 16.8083 9.24713 16.6496C9.0889 16.4909 9 16.2757 9 16.0513ZM9 19.1538C9 18.9294 9.0889 18.7142 9.24713 18.5555C9.40536 18.3968 9.61997 18.3077 9.84375 18.3077H17.1562C17.38 18.3077 17.5946 18.3968 17.7529 18.5555C17.9111 18.7142 18 18.9294 18 19.1538C18 19.3783 17.9111 19.5935 17.7529 19.7522C17.5946 19.9109 17.38 20 17.1562 20H9.84375C9.61997 20 9.40536 19.9109 9.24713 19.7522C9.0889 19.5935 9 19.3783 9 19.1538ZM14.2166 12.3846C14.1514 12.3846 14.0603 12.3846 13.9781 12.3914C13.8297 12.4015 13.6848 12.441 13.5517 12.5076C13.3401 12.6158 13.168 12.7883 13.0601 13.0006C12.9746 13.1698 12.9521 13.3278 12.9442 13.4282C12.9375 13.5106 12.9375 13.6019 12.9375 13.6674V15.6147C12.9375 15.6801 12.9375 15.7715 12.9442 15.8538C12.9521 15.9531 12.9746 16.1122 13.0601 16.2814C13.168 16.4937 13.3401 16.6663 13.5517 16.7745C13.7205 16.8602 13.878 16.8828 13.9781 16.8907C14.0603 16.8974 14.1514 16.8974 14.2166 16.8974H16.7209C16.7861 16.8974 16.8773 16.8974 16.9594 16.8907C17.0584 16.8828 17.217 16.8602 17.3858 16.7745C17.5974 16.6663 17.7695 16.4937 17.8774 16.2814C17.9438 16.148 17.9832 16.0027 17.9932 15.8538C18 15.7715 18 15.6801 18 15.6147V13.6674C18 13.6019 18 13.5106 17.9932 13.4282C17.9832 13.2794 17.9438 13.1341 17.8774 13.0006C17.7695 12.7883 17.5974 12.6158 17.3858 12.5076C17.2527 12.441 17.1078 12.4015 16.9594 12.3914C16.8773 12.3846 16.7861 12.3846 16.7209 12.3846H14.2166Z" fill="#8D98AF"/>
<path d="M16.7236 5H10.5491C9.96546 5 9.48 5 9.08182 5.03565C8.66727 5.07129 8.27891 5.15209 7.91127 5.35647C7.34667 5.66978 6.88764 6.16976 6.6 6.78474C6.41236 7.18518 6.33818 7.60819 6.30545 8.05972C6.27273 8.49343 6.27273 9.0222 6.27273 9.65791V21.6354H3.81818C3.60119 21.6354 3.39308 21.7293 3.23964 21.8964C3.0862 22.0635 3 22.2902 3 22.5266C3 24.5264 3.624 25.7111 4.41818 26.3586C4.82838 26.6917 5.31113 26.9026 5.81891 26.9706C5.87547 26.977 5.93224 26.9809 5.98909 26.9825C8.65855 27.0086 11.3291 27.0003 13.9985 26.9908C15.3324 26.986 16.6662 26.9833 18 26.9825C18.0764 26.9825 18.1491 26.9718 18.2182 26.9504C18.636 26.91 19.0091 26.8221 19.3625 26.626C19.9266 26.3128 20.3852 25.8133 20.6727 25.1989C20.8604 24.7973 20.9345 24.3743 20.9673 23.9228C21 23.489 21 22.9603 21 22.3258V9.65791C21 9.0222 21 8.49343 20.9673 8.05972C20.9345 7.60819 20.8604 7.18518 20.6727 6.78474C20.3857 6.17012 19.9274 5.67018 19.3636 5.35647C18.9949 5.15209 18.6065 5.07129 18.192 5.03565C17.7938 5 17.3073 5 16.7236 5ZM17.916 25.1847L17.8582 25.1716C17.693 25.1252 17.5377 25.044 17.4011 24.9328C17.1044 24.6904 16.6375 24.0915 16.6375 22.5266C16.6375 22.2902 16.5513 22.0635 16.3978 21.8964C16.2444 21.7293 16.0363 21.6354 15.8193 21.6354H7.90909V9.69355C7.90909 9.01388 7.90909 8.55641 7.93636 8.20469C7.96145 7.86366 8.00727 7.70087 8.05745 7.59393C8.18826 7.314 8.39718 7.08644 8.65418 6.94396C8.75236 6.8893 8.90182 6.8394 9.21491 6.81207C9.53782 6.78355 9.95673 6.78236 10.5818 6.78236H16.6909C17.3149 6.78236 17.7349 6.78236 18.0567 6.81207C18.3709 6.8394 18.5204 6.8893 18.6185 6.94396C18.876 7.08655 19.0844 7.31351 19.2153 7.59393C19.2655 7.70087 19.3113 7.86366 19.3364 8.20469C19.3625 8.55641 19.3636 9.01269 19.3636 9.69355V22.2889C19.3636 22.9686 19.3636 23.4261 19.3364 23.7766C19.3113 24.1188 19.2655 24.2816 19.2153 24.3885C19.0845 24.6685 18.8755 24.896 18.6185 25.0385C18.4636 25.1241 18.2967 25.1657 17.916 25.1847Z" fill="#8D98AF"/>
</svg>
