<svg width="42" height="42" viewBox="0 0 42 42" fill="none" xmlns="http://www.w3.org/2000/svg">
<path fill-rule="evenodd" clip-rule="evenodd" d="M37.7208 2.772C34.5248 -0.424001 29.343 -0.424001 26.147 2.772C22.951 5.96802 22.951 11.1498 26.147 14.3458C29.0117 17.2104 33.4717 17.5074 36.6672 15.2367L39.2778 17.8473C39.8147 18.3843 40.6853 18.3843 41.2223 17.8473C41.7593 17.3103 41.7593 16.4397 41.2223 15.9027L38.6117 13.2922C40.8824 10.0967 40.5854 5.63667 37.7208 2.772ZM28.0916 4.71654C30.2136 2.59448 33.6541 2.59448 35.7762 4.71654C37.8983 6.8386 37.8983 10.2791 35.7762 12.4012C33.6541 14.5233 30.2136 14.5233 28.0916 12.4012C25.9695 10.2791 25.9695 6.8386 28.0916 4.71654Z" fill="#1A1A1A"/>
<path d="M0.375 12.75C0.375 7.43425 4.68426 3.125 10 3.125H21C21.7594 3.125 22.375 3.74061 22.375 4.5C22.375 5.25939 21.7594 5.875 21 5.875H10C6.20307 5.875 3.125 8.95307 3.125 12.75V21.6875C3.125 22.4469 2.50939 23.0625 1.75 23.0625C0.990608 23.0625 0.375 22.4469 0.375 21.6875V12.75Z" fill="#1A1A1A"/>
<path d="M37.5 19.625C38.2594 19.625 38.875 20.2406 38.875 21V32C38.875 37.3158 34.5658 41.625 29.25 41.625H27.1875C26.4281 41.625 25.8125 41.0094 25.8125 40.25C25.8125 39.4906 26.4281 38.875 27.1875 38.875H29.25C33.047 38.875 36.125 35.7969 36.125 32V21C36.125 20.2406 36.7406 19.625 37.5 19.625Z" fill="#1A1A1A"/>
<path d="M4.42639 34.5C4.42639 33.7406 5.042 33.125 5.80139 33.125H7.27459C8.03401 33.125 8.64959 33.7406 8.64959 34.5C8.64959 35.2593 8.03401 35.875 7.27459 35.875H5.80139C5.042 35.875 4.42639 35.2593 4.42639 34.5Z" fill="#1A1A1A"/>
<path d="M15.1072 34.5C15.1072 33.7406 15.7228 33.125 16.4822 33.125H17.9554C18.7148 33.125 19.3304 33.7406 19.3304 34.5C19.3304 35.2593 18.7148 35.875 17.9554 35.875H16.4822C15.7228 35.875 15.1072 35.2593 15.1072 34.5Z" fill="#1A1A1A"/>
<path fill-rule="evenodd" clip-rule="evenodd" d="M3.9965 25.4674C4.4931 24.0137 5.87268 23.0625 7.3941 23.0625H16.7309C18.2523 23.0625 19.6319 24.0137 20.1285 25.4674L20.9687 27.9268C21.6016 27.6665 22.3439 27.9129 22.6884 28.5243C23.0611 29.1859 22.8269 30.0245 22.1652 30.3972L22.0947 30.4369C23.0977 31.2097 23.75 32.4113 23.75 33.7812V38.0937C23.75 40.0757 22.113 41.625 20.1652 41.625C18.5658 41.625 17.1759 40.5803 16.7299 39.1094H7.39513C6.94908 40.5803 5.55924 41.625 3.95982 41.625C2.01199 41.625 0.375 40.0757 0.375 38.0937V33.7812C0.375 32.4255 1.01383 31.2347 1.9992 30.4611L1.88575 30.3972C1.22412 30.0245 0.989927 29.1859 1.36266 28.5243C1.71887 27.892 2.50052 27.6501 3.1466 27.9552L3.9965 25.4674ZM5.51426 29.5313L6.59887 26.3564C6.70378 26.0491 7.01316 25.8125 7.3941 25.8125H16.7309C17.1118 25.8125 17.4212 26.0491 17.5261 26.3564L18.6107 29.5313H5.51426ZM4.69643 32.2813C3.79655 32.2813 3.125 32.9844 3.125 33.7812V38.0937C3.125 38.4936 3.46676 38.875 3.95982 38.875C4.45289 38.875 4.79464 38.4936 4.79464 38.0937V37.7344C4.79464 36.975 5.41025 36.3594 6.16966 36.3594H17.9553C18.7148 36.3594 19.3303 36.975 19.3303 37.7344V38.0937C19.3303 38.4936 19.6721 38.875 20.1652 38.875C20.6582 38.875 21 38.4936 21 38.0937V33.7812C21 32.9844 20.3284 32.2813 19.4286 32.2813H4.69643Z" fill="#1A1A1A"/>
</svg>
