<svg width="24" height="24" viewBox="0 0 24 24" fill="none" xmlns="http://www.w3.org/2000/svg">
<path d="M20.955 10.0424C20.955 14.1149 17.3551 17.5199 12.5925 18.3149C13.485 18.6524 14.4825 18.8324 15.54 18.8324H16.7926L19.3651 20.7524C19.5 20.8499 19.6576 20.9024 19.815 20.9024C19.9575 20.9024 20.0925 20.8574 20.2201 20.7824C20.4825 20.6099 20.61 20.2949 20.5501 19.9949L20.0251 17.5724C21.5851 16.5449 22.5 15.0299 22.5 13.4099C22.5 12.1274 21.9225 10.9349 20.955 10.0049V10.0424Z" fill="#8D98AF"/>
<path d="M1.5 10.0427C1.5 12.1427 2.73001 14.1301 4.81499 15.4351L4.08 18.8101C4.01999 19.1176 4.14752 19.4326 4.41 19.6052C4.53749 19.6801 4.67249 19.7251 4.81499 19.7251C4.9725 19.7251 5.13002 19.6726 5.26501 19.5751L8.73752 16.9876H10.4775C15.4275 16.9876 19.455 13.8676 19.455 10.0427C19.455 6.21764 15.4275 3.09766 10.4775 3.09766C5.5275 3.09766 1.5 6.21764 1.5 10.0427ZM10.4925 14.3326C10.08 14.3326 9.74249 13.9951 9.74249 13.5826C9.74249 13.1702 10.0725 12.8326 10.485 12.8326H10.4925C10.905 12.8326 11.2425 13.1702 11.2425 13.5826C11.2425 13.9951 10.905 14.3326 10.4925 14.3326ZM8.99249 6.27014C9.5625 5.82016 10.305 5.64763 11.0325 5.82016C11.91 6.01512 12.6075 6.71266 12.81 7.59015C13.035 8.58015 12.6375 9.58513 11.7975 10.1401C11.445 10.3801 11.2275 10.8076 11.2275 11.2726C11.2275 11.6926 10.89 12.0226 10.4775 12.0226C10.065 12.0226 9.72748 11.6926 9.72748 11.2726C9.72748 10.2976 10.1925 9.41264 10.9725 8.89514C11.22 8.73016 11.4525 8.38515 11.3475 7.92766C11.2725 7.61263 11.0175 7.35014 10.695 7.27516C10.32 7.19263 10.05 7.35014 9.92249 7.44765C9.705 7.62013 9.58502 7.87515 9.58502 8.14514C9.58502 8.56514 9.24751 8.89514 8.83502 8.89514C8.42249 8.89514 8.08502 8.56514 8.08502 8.14514C8.08502 7.41766 8.41498 6.72763 8.99249 6.27014Z" fill="#8D98AF"/>
</svg>
