<svg width="24" height="24" viewBox="0 0 24 24" fill="none" xmlns="http://www.w3.org/2000/svg">
<path d="M20 4.57004V18L19.993 17.986V18L17.644 16.656C17.5982 16.6298 17.5601 16.592 17.5336 16.5463C17.507 16.5007 17.493 16.4488 17.493 16.396C17.493 16.396 17.493 8.50504 17.493 8.47104C17.5314 7.93164 17.4519 7.39034 17.2599 6.8848C17.0679 6.37925 16.7681 5.9216 16.3813 5.54367C15.9945 5.16574 15.53 4.8766 15.0202 4.69637C14.5103 4.51614 13.9673 4.44915 13.429 4.50004H8.21597C8.04197 4.50004 7.98997 4.34804 8.00497 4.17504C8.00778 3.85684 8.07896 3.54296 8.21369 3.25467C8.34842 2.96639 8.54355 2.71044 8.78586 2.50417C9.02817 2.2979 9.31199 2.14613 9.61809 2.05915C9.92418 1.97217 10.2454 1.95201 10.56 2.00004H17.427C17.7762 1.95017 18.1323 1.98224 18.467 2.09371C18.8017 2.20518 19.1059 2.393 19.3555 2.64231C19.6051 2.89162 19.7932 3.19558 19.9051 3.53016C20.017 3.86473 20.0494 4.22075 20 4.57004ZM16 8.57004V22L9.99997 18.572L3.99997 22V8.57104C3.94998 8.22178 3.98202 7.86568 4.09354 7.53095C4.20507 7.19622 4.39302 6.89206 4.6425 6.64258C4.89199 6.39309 5.19614 6.20514 5.53088 6.09362C5.86561 5.98209 6.22171 5.95005 6.57097 6.00004H13.429C13.7782 5.95005 14.1343 5.98209 14.4691 6.09362C14.8038 6.20514 15.108 6.39309 15.3574 6.64258C15.6069 6.89206 15.7949 7.19622 15.9064 7.53095C16.0179 7.86568 16.05 8.22178 16 8.57104V8.57004ZM11.437 9.43005C11.1168 9.44542 10.8087 9.5566 10.5525 9.74916C10.2962 9.94173 10.1038 10.2068 9.99997 10.51C9.89601 10.207 9.70346 9.94213 9.44726 9.74975C9.19106 9.55738 8.883 9.44635 8.56297 9.43104C7.11897 9.43804 6.55097 10.786 6.81097 12.131C7.23497 14.311 9.99997 15.569 9.99997 15.569C9.99997 15.569 12.765 14.311 13.189 12.126C13.449 10.786 12.884 9.43705 11.437 9.43005Z" fill="black"/>
</svg>
