<svg width="18" height="18" viewBox="0 0 18 18" fill="none" xmlns="http://www.w3.org/2000/svg">
<path fill-rule="evenodd" clip-rule="evenodd" d="M12.9583 1.49996C12.9583 1.11329 12.8049 0.742459 12.5308 0.469126C12.2574 0.194959 11.8866 0.041626 11.4999 0.041626C9.61659 0.041626 5.04992 0.041626 3.16659 0.041626C2.77992 0.041626 2.40909 0.194959 2.13575 0.469126C1.86159 0.742459 1.70825 1.11329 1.70825 1.49996V17.3333C1.70825 17.6783 1.98825 17.9583 2.33325 17.9583H12.3333C12.6783 17.9583 12.9583 17.6783 12.9583 17.3333V1.49996ZM11.7083 1.49996V16.7083H2.95825V1.49996C2.95825 1.44496 2.97992 1.39163 3.01909 1.35246C3.05825 1.31329 3.11159 1.29163 3.16659 1.29163H11.4999C11.5549 1.29163 11.6083 1.31329 11.6474 1.35246C11.6866 1.39163 11.7083 1.44496 11.7083 1.49996Z" fill="black"/>
<path fill-rule="evenodd" clip-rule="evenodd" d="M11.2917 2.75C11.2917 2.405 11.0117 2.125 10.6667 2.125H4C3.655 2.125 3.375 2.405 3.375 2.75V6.5C3.375 6.845 3.655 7.125 4 7.125H10.6667C11.0117 7.125 11.2917 6.845 11.2917 6.5V2.75ZM10.0417 3.375V5.875H4.625V3.375H10.0417Z" fill="black"/>
<path fill-rule="evenodd" clip-rule="evenodd" d="M1.08325 17.9583H13.5833C13.9283 17.9583 14.2083 17.6783 14.2083 17.3333C14.2083 16.9883 13.9283 16.7083 13.5833 16.7083H1.08325C0.738252 16.7083 0.458252 16.9883 0.458252 17.3333C0.458252 17.6783 0.738252 17.9583 1.08325 17.9583Z" fill="black"/>
<path fill-rule="evenodd" clip-rule="evenodd" d="M15.6666 14.2082C15.5008 14.2082 15.3416 14.1424 15.2249 14.0249C15.1074 13.9082 15.0416 13.7491 15.0416 13.5832C15.0416 12.9091 15.0416 12.0966 15.0416 11.4999C15.0416 11.1132 14.8883 10.7424 14.6141 10.4691C14.3408 10.1949 13.9699 10.0416 13.5833 10.0416C13.0033 10.0416 12.3333 10.0416 12.3333 10.0416C11.9883 10.0416 11.7083 10.3216 11.7083 10.6666C11.7083 11.0116 11.9883 11.2916 12.3333 11.2916H13.5833C13.6383 11.2916 13.6916 11.3132 13.7308 11.3524C13.7699 11.3916 13.7916 11.4449 13.7916 11.4999V13.5832C13.7916 14.0807 13.9891 14.5574 14.3408 14.9091C14.6924 15.2607 15.1691 15.4582 15.6666 15.4582C16.7024 15.4582 17.5416 14.6191 17.5416 13.5832V5.52325C17.5416 4.91575 17.2999 4.33325 16.8708 3.90325C16.2549 3.28741 15.2749 2.30825 15.2749 2.30825C15.0316 2.06408 14.6349 2.06408 14.3916 2.30825C14.1474 2.55158 14.1474 2.94825 14.3916 3.19158C14.3916 3.19158 15.3708 4.17158 15.9866 4.78741C16.1816 4.98241 16.2916 5.24741 16.2916 5.52325V13.5832C16.2916 13.9282 16.0116 14.2082 15.6666 14.2082Z" fill="black"/>
<path fill-rule="evenodd" clip-rule="evenodd" d="M7.77486 9.39162C7.5307 9.14745 7.1357 9.14745 6.89153 9.39162C6.89153 9.39162 6.19903 10.0825 5.6457 10.9675C5.23986 11.6183 4.92236 12.37 4.92236 13.0475C4.92236 14.3783 6.00236 15.4583 7.3332 15.4583C8.66403 15.4583 9.74403 14.3783 9.74403 13.0475C9.74403 12.37 9.42653 11.6183 9.0207 10.9675C8.46736 10.0825 7.77486 9.39162 7.77486 9.39162ZM7.3332 10.7691C7.5257 11.0016 7.75403 11.3008 7.9607 11.63C8.23986 12.0775 8.49403 12.5816 8.49403 13.0475C8.49403 13.6883 7.97403 14.2083 7.3332 14.2083C6.69236 14.2083 6.17236 13.6883 6.17236 13.0475C6.17236 12.5816 6.42653 12.0775 6.7057 11.63C6.91236 11.3008 7.1407 11.0016 7.3332 10.7691Z" fill="black"/>
</svg>
