<svg width="18" height="18" viewBox="0 0 18 18" fill="none" xmlns="http://www.w3.org/2000/svg">
<g clip-path="url(#clip0_48_1073)">
<path d="M15.8906 3.51562C16.6673 3.51562 17.2969 2.88603 17.2969 2.10938C17.2969 1.33272 16.6673 0.703125 15.8906 0.703125C15.114 0.703125 14.4844 1.33272 14.4844 2.10938C14.4844 2.88603 15.114 3.51562 15.8906 3.51562Z" stroke="black" stroke-width="1.875" stroke-miterlimit="10" stroke-linecap="round" stroke-linejoin="round"/>
<path d="M9 3.51562C9.77665 3.51562 10.4062 2.88603 10.4062 2.10938C10.4062 1.33272 9.77665 0.703125 9 0.703125C8.22335 0.703125 7.59375 1.33272 7.59375 2.10938C7.59375 2.88603 8.22335 3.51562 9 3.51562Z" stroke="black" stroke-width="1.875" stroke-miterlimit="10" stroke-linecap="round" stroke-linejoin="round"/>
<path d="M2.10938 3.51562C2.88603 3.51562 3.51562 2.88603 3.51562 2.10938C3.51562 1.33272 2.88603 0.703125 2.10938 0.703125C1.33272 0.703125 0.703125 1.33272 0.703125 2.10938C0.703125 2.88603 1.33272 3.51562 2.10938 3.51562Z" stroke="black" stroke-width="1.875" stroke-miterlimit="10" stroke-linecap="round" stroke-linejoin="round"/>
<path d="M2.10938 17.2969C2.88603 17.2969 3.51562 16.6673 3.51562 15.8906C3.51562 15.114 2.88603 14.4844 2.10938 14.4844C1.33272 14.4844 0.703125 15.114 0.703125 15.8906C0.703125 16.6673 1.33272 17.2969 2.10938 17.2969Z" stroke="black" stroke-width="1.875" stroke-miterlimit="10" stroke-linecap="round" stroke-linejoin="round"/>
<path d="M9 17.2969C9.77665 17.2969 10.4062 16.6673 10.4062 15.8906C10.4062 15.114 9.77665 14.4844 9 14.4844C8.22335 14.4844 7.59375 15.114 7.59375 15.8906C7.59375 16.6673 8.22335 17.2969 9 17.2969Z" stroke="black" stroke-width="1.875" stroke-miterlimit="10" stroke-linecap="round" stroke-linejoin="round"/>
<path d="M15.8906 3.51562V7.45312C15.8906 8.22976 15.261 8.85938 14.4844 8.85938H2.10938V14.4844" stroke="black" stroke-width="1.875" stroke-miterlimit="10" stroke-linecap="round" stroke-linejoin="round"/>
<path d="M2.10938 8.85938V3.51562" stroke="black" stroke-width="1.875" stroke-miterlimit="10" stroke-linecap="round" stroke-linejoin="round"/>
<path d="M9 3.51562V14.4844" stroke="black" stroke-width="1.875" stroke-miterlimit="10" stroke-linecap="round" stroke-linejoin="round"/>
<path d="M15.8906 17.2969C16.6673 17.2969 17.2969 16.6673 17.2969 15.8906C17.2969 15.114 16.6673 14.4844 15.8906 14.4844C15.114 14.4844 14.4844 15.114 14.4844 15.8906C14.4844 16.6673 15.114 17.2969 15.8906 17.2969Z" stroke="black" stroke-width="1.875" stroke-miterlimit="10" stroke-linecap="round" stroke-linejoin="round"/>
<path d="M15.8906 11.6719V14.4844" stroke="black" stroke-width="1.875" stroke-miterlimit="10" stroke-linecap="round" stroke-linejoin="round"/>
</g>
<defs>
<clipPath id="clip0_48_1073">
<rect width="18" height="18" fill="white"/>
</clipPath>
</defs>
</svg>
