<svg width="24" height="24" viewBox="0 0 24 24" fill="none" xmlns="http://www.w3.org/2000/svg">
<path fill-rule="evenodd" clip-rule="evenodd" d="M3 4.25C3 3.55964 3.55964 3 4.25 3H19.75C20.4404 3 21 3.55964 21 4.25V6.59961V6.6V18.7475V19.75V19.9996C21 20.5519 20.5523 20.9996 20 20.9996H19.7816L19.7682 20.9999L19.75 21H4.25C4.23944 21 4.22892 20.9999 4.21843 20.9996H4C3.44772 20.9996 3 20.5519 3 19.9996V19.75V18.7475V6.6V6.59961V4.25ZM4.51758 6.6H19.5161V18.7475H4.51758V6.6ZM12.1219 9C11.8458 9 11.6219 9.22386 11.6219 9.5V15.5C11.6219 15.7761 11.8458 16 12.1219 16H18.1219C18.398 16 18.6219 15.7761 18.6219 15.5V9.5C18.6219 9.22386 18.398 9 18.1219 9H12.1219ZM5.36443 9.25C5.36443 9.11193 5.47636 9 5.61443 9H10.1144C10.2525 9 10.3644 9.11193 10.3644 9.25V12.6641C10.3644 12.8021 10.2525 12.9141 10.1144 12.9141H5.61443C5.47636 12.9141 5.36443 12.8021 5.36443 12.6641V9.25ZM5.76025 13.9208C5.62218 13.9208 5.51025 14.0328 5.51025 14.1708V14.6708C5.51025 14.8089 5.62218 14.9208 5.76025 14.9208H7.69238C7.83045 14.9208 7.94238 14.8089 7.94238 14.6708V14.1708C7.94238 14.0328 7.83045 13.9208 7.69238 13.9208H5.76025Z" fill="#8D98AF"/>
</svg>
