<svg width="24" height="24" viewBox="0 0 24 24" fill="none" xmlns="http://www.w3.org/2000/svg">
<g clip-path="url(#clip0_175_3491)">
<path d="M13.6611 4.9201H16.3104L12.2554 0.654297V3.50891C12.2554 4.28216 12.8825 4.9201 13.6611 4.9201Z" fill="#8D98AF"/>
<path d="M9.26567 15.6791H4.56719C4.32934 15.6791 4.1347 15.4847 4.1347 15.2466C4.1347 15.0088 4.32934 14.8141 4.56719 14.8141H9.55223C9.82781 14.1114 10.1955 13.5165 10.6498 12.9217H4.56719C4.32934 12.9217 4.1347 12.7273 4.1347 12.4892C4.1347 12.2514 4.32934 12.0567 4.56719 12.0567H11.4715C12.769 10.9213 14.4884 10.1969 16.3645 10.1969C16.5428 10.1969 16.6889 10.2131 16.9052 10.2294V5.78503H13.6611C12.4068 5.78503 11.3904 4.75781 11.3904 3.50884V0H3.09668C2.02606 0 1.17188 0.875792 1.17188 1.95172V18.4528C1.17188 19.5287 2.02606 20.3829 3.09668 20.3829H9.61156C9.23857 19.5179 9.03313 18.5447 9.03313 17.5283C9.02764 16.8904 9.11425 16.2738 9.26567 15.6791ZM4.56719 9.35338H10.0442C10.2821 9.35338 10.4767 9.54802 10.4767 9.78606C10.4767 10.0239 10.2821 10.2186 10.0442 10.2186H4.56719C4.32934 10.2186 4.1347 10.0239 4.1347 9.78606C4.1347 9.54802 4.32934 9.35338 4.56719 9.35338Z" fill="#8D98AF"/>
<g clip-path="url(#clip1_175_3491)">
<path d="M21.9312 14.3819C21.8725 14.3103 21.785 14.2685 21.6931 14.2685H20.5252C20.237 13.5083 19.8615 12.7635 19.4347 12.4824C17.9584 11.5111 14.0424 11.5111 12.566 12.4824C12.1389 12.7638 11.7649 13.5096 11.4752 14.2685H10.3073C10.2145 14.2685 10.1273 14.3103 10.0692 14.3819C10.0108 14.4532 9.98746 14.5475 10.0065 14.6381L10.1795 15.4764C10.209 15.6192 10.335 15.7213 10.4803 15.7213H10.8263C10.4923 16.1066 10.3304 16.5917 10.3282 17.0772C10.3261 17.677 10.5537 18.219 10.9701 18.6025C10.9747 18.6065 10.9793 18.6093 10.9836 18.6133V19.7861C10.9836 20.0402 11.1901 20.247 11.4445 20.247H12.5217C12.7761 20.247 12.9826 20.0402 12.9826 19.7861V19.3147H19.0175V19.7861C19.0175 20.0402 19.224 20.247 19.4784 20.247H20.5556C20.8094 20.247 21.0165 20.0402 21.0165 19.7861V18.6363C21.4584 18.2316 21.6694 17.6749 21.6722 17.119C21.6741 16.6169 21.5048 16.1139 21.1511 15.7206H21.5201C21.6661 15.7206 21.792 15.6186 21.8209 15.4754L21.9942 14.6375C22.012 14.5475 21.9896 14.4538 21.9312 14.3819ZM13.072 13.2521C14.2488 12.4774 17.7513 12.4774 18.9275 13.2521C19.1561 13.402 19.4501 14.0082 19.7196 14.7506H12.2805C12.5494 14.0086 12.8434 13.4026 13.072 13.2521ZM11.6937 17.1928C11.6937 16.6919 12.0999 16.2863 12.6004 16.2863C13.1015 16.2863 13.5071 16.6919 13.5071 17.1928C13.5071 17.6936 13.1015 18.0995 12.6004 18.0995C12.0999 18.0995 11.6937 17.6936 11.6937 17.1928ZM19.4117 18.0995C18.9112 18.0995 18.505 17.6936 18.505 17.1928C18.505 16.6919 18.9112 16.2863 19.4117 16.2863C19.9128 16.2863 20.3184 16.6919 20.3184 17.1928C20.3184 17.6936 19.9122 18.0995 19.4117 18.0995Z" fill="#8D98AF"/>
</g>
</g>
<defs>
<clipPath id="clip0_175_3491">
<rect width="24" height="24" fill="white"/>
</clipPath>
<clipPath id="clip1_175_3491">
<rect width="12" height="12" fill="white" transform="translate(10 10)"/>
</clipPath>
</defs>
</svg>
