<svg width="24" height="24" viewBox="0 0 24 24" fill="none" xmlns="http://www.w3.org/2000/svg">
<path d="M16.5 11H7.5C7.36867 11 7.23862 10.9742 7.11728 10.9239C6.99594 10.8737 6.88568 10.8 6.79282 10.7072C6.69995 10.6143 6.62629 10.5041 6.57605 10.3827C6.52581 10.2614 6.49997 10.1313 6.5 10V6.5C6.5 5.04131 7.07946 3.64236 8.11091 2.61091C9.14236 1.57946 10.5413 1 12 1C13.4587 1 14.8576 1.57946 15.8891 2.61091C16.9205 3.64236 17.5 5.04131 17.5 6.5V10C17.5 10.1313 17.4742 10.2614 17.4239 10.3827C17.3737 10.5041 17.3 10.6143 17.2072 10.7072C17.1143 10.8 17.0041 10.8737 16.8827 10.9239C16.7614 10.9742 16.6313 11 16.5 11ZM8.5 9H15.5V6.5C15.5 5.57174 15.1313 4.6815 14.4749 4.02513C13.8185 3.36875 12.9283 3 12 3C11.0717 3 10.1815 3.36875 9.52513 4.02513C8.86875 4.6815 8.5 5.57174 8.5 6.5V9Z" fill="black"/>
<path d="M17 9H7C5.93948 9.00113 4.92272 9.42292 4.17282 10.1728C3.42292 10.9227 3.00113 11.9395 3 13V19C3.00113 20.0605 3.42292 21.0773 4.17282 21.8272C4.92272 22.5771 5.93948 22.9989 7 23H17C18.0605 22.9989 19.0773 22.5771 19.8272 21.8272C20.5771 21.0773 20.9989 20.0605 21 19V13C20.9989 11.9395 20.5771 10.9227 19.8272 10.1728C19.0773 9.42292 18.0605 9.00113 17 9ZM12 17C11.6044 17 11.2178 16.8827 10.8889 16.6629C10.56 16.4432 10.3036 16.1308 10.1522 15.7654C10.0009 15.3999 9.96126 14.9978 10.0384 14.6098C10.1156 14.2219 10.3061 13.8655 10.5858 13.5858C10.8655 13.3061 11.2219 13.1156 11.6098 13.0384C11.9978 12.9613 12.3999 13.0009 12.7654 13.1522C13.1308 13.3036 13.4432 13.56 13.6629 13.8889C13.8827 14.2178 14 14.6044 14 15C14 15.5304 13.7893 16.0391 13.4142 16.4142C13.0391 16.7893 12.5304 17 12 17Z" fill="black"/>
</svg>
