<svg width="20" height="20" viewBox="0 0 20 20" fill="none" xmlns="http://www.w3.org/2000/svg">
<path d="M9.16661 10.7536V14.1666C9.16661 14.3876 9.25441 14.5996 9.41069 14.7559C9.56696 14.9122 9.77892 14.9999 9.99993 14.9999C10.2209 14.9999 10.4329 14.9122 10.5892 14.7559C10.7455 14.5996 10.8333 14.3876 10.8333 14.1666V10.7536C12.9634 10.3601 14.5833 8.4919 14.5833 6.24995C14.5833 5.03437 14.1004 3.86859 13.2408 3.00905C12.3813 2.14951 11.2155 1.66663 9.99993 1.66663C8.78436 1.66663 7.61857 2.14951 6.75903 3.00905C5.8995 3.86859 5.41661 5.03437 5.41661 6.24995C5.41661 8.49213 7.03642 10.3601 9.16661 10.7536ZM9.99993 3.33327C10.5768 3.33327 11.1407 3.50433 11.6204 3.82482C12.1 4.1453 12.4738 4.60083 12.6946 5.13378C12.9153 5.66673 12.9731 6.25318 12.8606 6.81896C12.748 7.38474 12.4702 7.90445 12.0623 8.31235C11.6544 8.72025 11.1347 8.99804 10.5689 9.11058C10.0032 9.22312 9.41672 9.16536 8.88377 8.94461C8.35081 8.72385 7.89529 8.35001 7.5748 7.87037C7.25431 7.39072 7.08325 6.82681 7.08325 6.24995C7.08418 5.47668 7.39177 4.73535 7.93856 4.18857C8.48534 3.64179 9.22667 3.3342 9.99993 3.33327ZM16.6666 14.9999C16.6666 17.1883 13.3129 18.3333 9.99993 18.3333C6.68696 18.3333 3.33325 17.1883 3.33325 14.9999C3.33325 13.5815 4.82903 12.4316 7.33474 11.9246C7.55095 11.882 7.77523 11.9267 7.95854 12.049C8.14185 12.1714 8.26927 12.3613 8.31294 12.5773C8.35661 12.7933 8.31298 13.0178 8.19158 13.2017C8.07019 13.3856 7.8809 13.514 7.66513 13.5587C5.84712 13.9265 4.99993 14.6362 4.99993 14.9999C4.99993 15.5875 6.89813 16.6666 9.99993 16.6666C13.1017 16.6666 14.9999 15.5875 14.9999 14.9999C14.9999 14.6362 14.1527 13.9265 12.3347 13.5585C12.119 13.5138 11.9297 13.3854 11.8083 13.2015C11.6869 13.0176 11.6432 12.7931 11.6869 12.5771C11.7306 12.3611 11.858 12.1712 12.0413 12.0489C12.2246 11.9266 12.4489 11.8818 12.6651 11.9244C15.1708 12.4316 16.6666 13.5815 16.6666 14.9999Z" fill="black"/>
</svg>
