<svg width="44" height="45" viewBox="0 0 44 45" fill="none" xmlns="http://www.w3.org/2000/svg">
<path d="M42.6568 30.9874C42.4279 30.4117 42.0763 29.8927 41.6263 29.4667C41.1764 29.0408 40.639 28.7181 40.0515 28.5211C39.4643 28.3264 38.8421 28.2597 38.2269 28.3256C37.6117 28.3915 37.0178 28.5885 36.4852 28.9032L28.102 33.9401H27.9631C28.2416 33.3826 28.3882 32.7685 28.3915 32.1453C28.3885 31.0621 27.9593 30.0235 27.1965 29.2543C26.4338 28.485 25.3989 28.047 24.3157 28.0348H11.8915C11.6606 28.0343 11.4348 28.1028 11.2431 28.2317L9.26308 29.5285C9.06579 29.0801 8.74115 28.6995 8.32946 28.4339C7.91777 28.1684 7.43716 28.0296 6.94729 28.0348H3.76308C3.10484 28.0379 2.4746 28.3015 2.01023 28.768C1.54587 29.2346 1.28518 29.866 1.28518 30.5243V40.8527C1.28366 41.1791 1.34663 41.5025 1.47047 41.8045C1.59431 42.1065 1.77659 42.381 2.00684 42.6123C2.23708 42.8437 2.51076 43.0272 2.81215 43.1525C3.11354 43.2777 3.4367 43.3422 3.76308 43.3422H7.01676C7.50695 43.3489 7.98821 43.2107 8.40018 42.945C8.81216 42.6793 9.1365 42.2978 9.33255 41.8485L11.2778 43.1453C11.4695 43.2741 11.6953 43.3427 11.9262 43.3422H28.4147C28.6225 43.3421 28.8265 43.2861 29.0052 43.1801L40.8389 36.2327C41.7117 35.7131 42.3729 34.9018 42.7055 33.942C43.0381 32.9822 43.0209 31.9357 42.6568 30.9874ZM7.19045 40.8527C7.19045 40.8755 7.18595 40.8981 7.17723 40.9192C7.1685 40.9402 7.1557 40.9594 7.13958 40.9755C7.12345 40.9916 7.1043 41.0044 7.08323 41.0132C7.06216 41.0219 7.03957 41.0264 7.01676 41.0264H3.76308C3.71905 41.0234 3.67779 41.0039 3.64768 40.9716C3.61758 40.9393 3.60087 40.8968 3.60097 40.8527V30.5243C3.60087 30.4802 3.61758 30.4376 3.64768 30.4054C3.67779 30.3731 3.71905 30.3535 3.76308 30.3506H7.01676C7.03957 30.3506 7.06216 30.3551 7.08323 30.3638C7.1043 30.3725 7.12345 30.3853 7.13958 30.4015C7.1557 30.4176 7.1685 30.4367 7.17723 30.4578C7.18595 30.4789 7.19045 30.5015 7.19045 30.5243V40.8527ZM39.681 34.2759L28.102 41.0264H12.2389L9.50624 39.2085V32.1801L12.2389 30.3506H24.3157C24.7917 30.3506 25.2482 30.5397 25.5848 30.8763C25.9214 31.2128 26.1104 31.6693 26.1104 32.1453C26.1104 32.6213 25.9214 33.0778 25.5848 33.4144C25.2482 33.751 24.7917 33.9401 24.3157 33.9401H17.8315C17.5244 33.9401 17.2299 34.0621 17.0127 34.2792C16.7956 34.4964 16.6736 34.7909 16.6736 35.098C16.6736 35.4051 16.7956 35.6996 17.0127 35.9167C17.2299 36.1339 17.5244 36.2559 17.8315 36.2559H28.4494C28.6606 36.254 28.8679 36.1982 29.0515 36.0938L37.7126 30.8948C37.9582 30.7444 38.2343 30.6507 38.5208 30.6206C38.8073 30.5906 39.0968 30.6249 39.3683 30.7211C39.7277 30.8386 40.0453 31.0575 40.2828 31.3516C40.5203 31.6457 40.6676 32.0023 40.7068 32.3783C40.746 32.7543 40.6754 33.1336 40.5037 33.4703C40.3319 33.8071 40.0662 34.0869 39.7389 34.2759H39.681Z" fill="#1A1A1A"/>
<path d="M21.9998 24.8159C24.2899 24.8159 26.5286 24.1368 28.4328 22.8645C30.3369 21.5921 31.821 19.7838 32.6974 17.668C33.5738 15.5522 33.8031 13.2241 33.3563 10.978C32.9095 8.73188 31.8067 6.6687 30.1874 5.04936C28.5681 3.43001 26.5049 2.32723 24.2588 1.88045C22.0127 1.43367 19.6846 1.66298 17.5688 2.53936C15.453 3.41574 13.6446 4.89984 12.3723 6.80399C11.1 8.70814 10.4209 10.9468 10.4209 13.2369C10.4209 16.3078 11.6408 19.253 13.8123 21.4245C15.9838 23.5959 18.9289 24.8159 21.9998 24.8159ZM21.9998 3.97375C23.8319 3.97375 25.6229 4.51703 27.1462 5.53488C28.6695 6.55273 29.8568 7.99943 30.5579 9.69205C31.259 11.3847 31.4424 13.2472 31.085 15.0441C30.7276 16.8409 29.8454 18.4915 28.5499 19.787C27.2544 21.0824 25.6039 21.9647 23.807 22.3221C22.0101 22.6795 20.1476 22.4961 18.455 21.795C16.7624 21.0938 15.3157 19.9066 14.2978 18.3832C13.28 16.8599 12.7367 15.069 12.7367 13.2369C12.7367 10.7802 13.7126 8.42405 15.4498 6.68687C17.187 4.94969 19.5431 3.97375 21.9998 3.97375Z" fill="#1A1A1A"/>
<path d="M22.7411 16.5485H19.0242C18.7171 16.5485 18.4226 16.6705 18.2055 16.8876C17.9883 17.1048 17.8663 17.3993 17.8663 17.7064C17.8663 18.0135 17.9883 18.308 18.2055 18.5251C18.4226 18.7423 18.7171 18.8643 19.0242 18.8643H20.8421V19.1885C20.8421 19.4956 20.9641 19.7901 21.1813 20.0072C21.3984 20.2244 21.6929 20.3464 22 20.3464C22.3071 20.3464 22.6016 20.2244 22.8188 20.0072C23.0359 19.7901 23.1579 19.4956 23.1579 19.1885V18.818C24.0165 18.7171 24.8038 18.2913 25.358 17.6279C25.9123 16.9645 26.1915 16.1141 26.1381 15.2513C26.0847 14.3885 25.7029 13.5789 25.0711 12.9889C24.4393 12.3989 23.6055 12.0733 22.7411 12.079H21.259C20.9734 12.079 20.6995 11.9656 20.4975 11.7636C20.2956 11.5617 20.1821 11.2878 20.1821 11.0022C20.1821 10.7166 20.2956 10.4427 20.4975 10.2407C20.6995 10.0388 20.9734 9.92534 21.259 9.92534H24.9758C25.2829 9.92534 25.5774 9.80334 25.7946 9.5862C26.0117 9.36905 26.1337 9.07453 26.1337 8.76744C26.1337 8.46035 26.0117 8.16583 25.7946 7.94869C25.5774 7.73154 25.2829 7.60955 24.9758 7.60955H23.1579V7.28534C23.1579 6.97824 23.0359 6.68373 22.8188 6.46658C22.6016 6.24943 22.3071 6.12744 22 6.12744C21.6929 6.12744 21.3984 6.24943 21.1813 6.46658C20.9641 6.68373 20.8421 6.97824 20.8421 7.28534V7.65586C19.9836 7.7567 19.1962 8.18257 18.642 8.84593C18.0877 9.50929 17.8086 10.3598 17.8619 11.2226C17.9153 12.0854 18.2971 12.895 18.9289 13.485C19.5607 14.075 20.3945 14.4005 21.259 14.3948H22.7411C23.0267 14.3948 23.3006 14.5083 23.5025 14.7102C23.7045 14.9122 23.8179 15.1861 23.8179 15.4717C23.8179 15.7572 23.7045 16.0311 23.5025 16.2331C23.3006 16.435 23.0267 16.5485 22.7411 16.5485Z" fill="#1A1A1A"/>
</svg>
