<svg width="18" height="14" viewBox="0 0 18 14" fill="none" xmlns="http://www.w3.org/2000/svg">
<path d="M15.9833 4.14169L14.9583 5.68335C15.4526 6.66927 15.6946 7.76235 15.6626 8.86477C15.6306 9.96719 15.3256 11.0444 14.7749 12H3.22498C2.50929 10.7584 2.21273 9.31927 2.37926 7.89594C2.54581 6.47252 3.16657 5.1407 4.14955 4.09788C5.13252 3.05504 6.42537 2.35672 7.83644 2.10644C9.24752 1.85614 10.7016 2.06721 11.9834 2.70835L13.525 1.68335C11.9554 0.676869 10.0936 0.225852 8.23736 0.402469C6.38119 0.579077 4.63785 1.3731 3.28622 2.65753C1.9346 3.94196 1.05278 5.6426 0.781831 7.48735C0.510872 9.33218 0.866439 11.2145 1.79165 12.8334C1.93707 13.0853 2.14589 13.2947 2.39734 13.4409C2.64879 13.5871 2.93412 13.6649 3.22498 13.6667H14.7666C15.0604 13.6679 15.3491 13.5914 15.6038 13.445C15.8584 13.2987 16.0698 13.0877 16.2166 12.8334C16.9844 11.5033 17.3698 9.98693 17.3301 8.45168C17.2904 6.91635 16.8272 5.42194 15.9916 4.13335L15.9833 4.14169ZM7.82502 9.84169C7.97977 9.99669 8.16361 10.1196 8.36594 10.2034C8.56827 10.2874 8.78511 10.3305 9.00419 10.3305C9.22319 10.3305 9.44002 10.2874 9.64236 10.2034C9.84469 10.1196 10.0285 9.99669 10.1834 9.84169L14.8999 2.76669L7.82502 7.48335C7.67002 7.6381 7.54711 7.82194 7.46319 8.02427C7.37936 8.2266 7.33619 8.44352 7.33619 8.66252C7.33619 8.88152 7.37936 9.09843 7.46319 9.30077C7.54711 9.5031 7.67002 9.68694 7.82502 9.84169Z" fill="black"/>
</svg>
