<svg width="24" height="24" viewBox="0 0 24 24" fill="none" xmlns="http://www.w3.org/2000/svg">
<path d="M11.2542 3C11.9701 3.00015 12.6567 3.28469 13.1629 3.79104L20.1014 10.7295C20.6768 11.305 21 12.0855 21 12.8992C21 13.713 20.6768 14.4935 20.1014 15.069L15.069 20.1014C14.4935 20.6768 13.713 21 12.8992 21C12.0855 21 11.305 20.6768 10.7295 20.1014L3.79104 13.1629C3.28469 12.6567 3.00015 11.9701 3 11.2542V6.59972C3 5.64502 3.37926 4.72941 4.05433 4.05433C4.72941 3.37926 5.64502 3 6.59972 3H11.2542ZM7.94962 6.14976C7.49554 6.14962 7.05818 6.32111 6.72522 6.62987C6.39226 6.93863 6.18831 7.36183 6.15426 7.81463L6.14976 7.94962C6.14976 8.3056 6.25532 8.65358 6.45309 8.94957C6.65086 9.24556 6.93196 9.47625 7.26084 9.61248C7.58973 9.7487 7.95162 9.78435 8.30076 9.7149C8.6499 9.64545 8.9706 9.47403 9.22231 9.22231C9.47403 8.9706 9.64545 8.6499 9.7149 8.30076C9.78435 7.95162 9.7487 7.58973 9.61248 7.26084C9.47625 6.93196 9.24556 6.65086 8.94957 6.45309C8.65358 6.25532 8.3056 6.14976 7.94962 6.14976Z" fill="#8D98AF"/>
</svg>
