<svg width="80" height="81" viewBox="0 0 80 81" fill="none" xmlns="http://www.w3.org/2000/svg">
<rect y="0.5" width="80" height="80" rx="12" fill="#E6E6E6"/>
<path d="M43.5748 29.2801C43.2923 29.2871 43.0114 29.2356 42.7498 29.1289C42.468 28.981 42.2256 28.7678 42.043 28.5071C41.8605 28.2464 41.7429 27.9458 41.7003 27.6304C41.6577 27.3149 41.6912 26.9939 41.7981 26.6941C41.9049 26.3943 42.082 26.1244 42.3145 25.907C42.5469 25.6897 42.8281 25.5311 43.1344 25.4446C43.4407 25.3582 43.7632 25.3463 44.0751 25.41C44.3869 25.4736 44.679 25.6111 44.9268 25.8107C45.1747 26.0104 45.3712 26.2665 45.4998 26.5576C45.6993 27.0468 45.6993 27.5947 45.4998 28.0839C45.3399 28.4563 45.0696 28.7707 44.7254 28.9847C44.3811 29.1986 43.9795 29.3017 43.5748 29.2801Z" fill="#1A1A1A"/>
<path d="M38.7899 60.2588C37.9438 60.2544 37.1071 60.0815 36.3287 59.75L24.9712 54.8275C24.2246 54.5073 23.5487 54.0427 22.9824 53.4602C22.4161 52.8778 21.9707 52.1891 21.6716 51.4338C21.3726 50.6785 21.2259 49.8716 21.2399 49.0594C21.254 48.2471 21.4286 47.4457 21.7537 46.7013L30.0037 27.6988C30.3196 26.9574 30.7784 26.2856 31.3541 25.7217C31.9298 25.1579 32.611 24.713 33.3587 24.4125L41.4987 21.25C43.0251 20.6501 44.727 20.6794 46.232 21.3313C47.7369 21.9833 48.9223 23.2049 49.5287 24.7288L52.7462 32.855C53.0518 33.6103 53.2032 34.4191 53.1914 35.2338C53.1796 36.0485 53.0049 36.8526 52.6774 37.5988L44.4274 56.5875C43.7777 58.0943 42.556 59.2814 41.0312 59.8875C40.3128 60.1461 39.5533 60.2719 38.7899 60.2588ZM24.2699 47.7875C23.914 48.6252 23.902 49.5693 24.2365 50.4157C24.571 51.2622 25.225 51.9431 26.0574 52.3113L37.4287 57.22C37.842 57.3997 38.2868 57.4959 38.7375 57.5033C39.1882 57.5107 39.6359 57.429 40.0549 57.2629C40.4739 57.0968 40.856 56.8496 41.1793 56.5355C41.5025 56.2214 41.7606 55.8466 41.9387 55.4325L50.1887 36.43C50.5318 35.5882 50.5318 34.6455 50.1887 33.8038L46.9712 25.6638C46.6344 24.8187 45.9764 24.1416 45.1414 23.7808C44.3063 23.42 43.3623 23.4049 42.5162 23.7388L34.3762 26.9563C33.9553 27.1224 33.5718 27.371 33.2483 27.6874C32.9248 28.0038 32.6678 28.3816 32.4924 28.7988L24.2699 47.7875Z" fill="#1A1A1A"/>
<path d="M45.83 58.375C45.179 58.3725 44.533 58.2609 43.9188 58.045C43.5858 57.9138 43.317 57.6579 43.1697 57.3316C43.0224 57.0054 43.0081 56.6346 43.1298 56.298C43.2516 55.9614 43.4998 55.6856 43.8217 55.5291C44.1436 55.3726 44.5139 55.3478 44.8538 55.46C45.5483 55.7092 46.3118 55.6844 46.9887 55.3907C47.6656 55.0969 48.2052 54.5563 48.4975 53.8787L55.8125 36.8975C56.1015 36.1831 56.1015 35.3844 55.8125 34.67L52.98 27.4375C52.7247 26.79 52.2461 26.2552 51.6307 25.9299C51.0154 25.6045 50.3039 25.5101 49.625 25.6637C49.2604 25.7403 48.8802 25.6689 48.5682 25.4652C48.2562 25.2615 48.0379 24.9422 47.9613 24.5775C47.8847 24.2128 47.9561 23.8327 48.1598 23.5206C48.3635 23.2086 48.6829 22.9903 49.0475 22.9137C50.3698 22.6268 51.751 22.8227 52.9414 23.4658C54.1318 24.1089 55.0527 25.1568 55.5375 26.42L58.4113 33.625C58.6846 34.3165 58.818 35.0554 58.8038 35.7989C58.7897 36.5423 58.6282 37.2756 58.3288 37.9562L51 54.91C50.5706 55.9292 49.8522 56.8003 48.9335 57.4161C48.0148 58.0318 46.9359 58.3651 45.83 58.375Z" fill="#1A1A1A"/>
<path d="M41.5125 36.1413C42.163 36.5902 42.6665 37.221 42.9601 37.9548C43.2536 38.6886 43.324 39.4927 43.1625 40.2663L39.8075 39.84C39.9479 39.5803 40.001 39.2824 39.9589 38.9902C39.9168 38.698 39.7817 38.4271 39.5738 38.2175C39.4337 38.0611 39.2597 37.9388 39.065 37.86C38.8512 37.7545 38.616 37.6997 38.3775 37.6997C38.1391 37.6997 37.9038 37.7545 37.69 37.86C37.5607 37.9276 37.4551 38.0332 37.3875 38.1625C37.2088 38.5613 37.3875 39.0013 37.9375 39.5375C38.2469 39.8155 38.578 40.0684 38.9275 40.2938C39.7388 40.8466 40.462 41.5188 41.0725 42.2875C41.399 42.7685 41.5914 43.3277 41.6301 43.9077C41.6687 44.4877 41.5522 45.0675 41.2925 45.5876C41.0503 46.0983 40.6746 46.5341 40.205 46.8487C39.7354 47.1634 39.1895 47.3453 38.625 47.375C37.969 47.4776 37.301 47.4776 36.645 47.375L36.2188 48.365L33.125 46.99L33.565 45.9863C33.0512 45.6097 32.6236 45.128 32.3107 44.5732C31.9977 44.0184 31.8066 43.4033 31.75 42.7688C31.695 42.4226 31.695 42.07 31.75 41.7238L35.1188 42.1501C34.9849 42.4242 34.946 42.7352 35.0082 43.0339C35.0704 43.3326 35.2303 43.6021 35.4625 43.8C35.6595 43.9987 35.8929 44.1574 36.15 44.2675C36.408 44.4176 36.6963 44.5079 36.9938 44.5317C37.2912 44.5555 37.5903 44.5122 37.8688 44.405C37.9879 44.3523 38.085 44.26 38.1438 44.1438C38.3225 43.7175 38.1438 43.2638 37.6213 42.7688L36.1088 41.6138C35.1759 41.0189 34.4506 40.1494 34.0325 39.125C33.8135 38.3227 33.8916 37.4682 34.2525 36.7188C34.4864 36.2179 34.8438 35.7846 35.2912 35.4599C35.7386 35.1352 36.2613 34.9296 36.81 34.8625C37.3353 34.8004 37.866 34.8004 38.3913 34.8625L38.845 33.8313L41.925 35.2063L41.5125 36.1413Z" fill="#1A1A1A"/>
</svg>
