<svg width="44" height="45" viewBox="0 0 44 45" fill="none" xmlns="http://www.w3.org/2000/svg">
<path d="M26.125 25.25V23.875H28.875C29.6354 23.875 30.25 23.2604 30.25 22.5V14.25C30.25 13.4896 29.6354 12.875 28.875 12.875H9.625C8.866 12.875 8.25 13.4896 8.25 14.25V22.5C8.25 23.2604 8.866 23.875 9.625 23.875H12.375V25.25C12.375 26.0104 12.991 26.625 13.75 26.625H15.125V28C15.125 28.7604 15.741 29.375 16.5 29.375H22C22.759 29.375 23.375 28.7604 23.375 28V26.625H24.75C25.5104 26.625 26.125 26.0104 26.125 25.25ZM23.375 22.5V23.875H22C21.241 23.875 20.625 24.4896 20.625 25.25V26.625H17.875V25.25C17.875 24.4896 17.259 23.875 16.5 23.875H15.125V22.5C15.125 21.7396 14.509 21.125 13.75 21.125H11V15.625H12.375V17C12.375 17.7604 12.991 18.375 13.75 18.375C14.509 18.375 15.125 17.7604 15.125 17V15.625H17.875V17C17.875 17.7604 18.491 18.375 19.25 18.375C20.009 18.375 20.625 17.7604 20.625 17V15.625H23.375V17C23.375 17.7604 23.9896 18.375 24.75 18.375C25.5104 18.375 26.125 17.7604 26.125 17V15.625H27.5V21.125H24.75C23.9896 21.125 23.375 21.7396 23.375 22.5Z" fill="#1A1A1A"/>
<path d="M33.9254 25.3049C35.1313 22.1424 35.75 18.8163 35.75 15.3829V11.4999C35.75 10.9596 35.4351 10.4714 34.9442 10.2487L19.8193 3.3737C19.4576 3.21007 19.0438 3.21007 18.6821 3.3737L3.55712 10.2487C3.06487 10.4714 2.75 10.9596 2.75 11.4999V15.3829C2.75 23.7319 6.44187 31.5708 12.8783 36.8907L18.3728 41.4351C18.6271 41.6454 18.9379 41.7499 19.25 41.7499C19.5621 41.7499 19.8715 41.6454 20.1259 41.4351L25.5269 36.9718C26.84 39.7892 29.6917 41.7499 33 41.7499C37.5499 41.7499 41.25 38.0498 41.25 33.4999C41.25 29.2636 38.0407 25.7683 33.9254 25.3049ZM23.87 34.7732L19.25 38.5902L14.6314 34.7718C8.8275 29.9758 5.5 22.9097 5.5 15.3829V12.3854L19.25 6.13607L33 12.3854V15.3843C33 18.9263 32.2575 22.3391 30.8371 25.5483C27.335 26.5012 24.75 29.6994 24.75 33.4999C24.75 33.6594 24.7651 33.8134 24.7734 33.9702C24.4764 34.2411 24.1821 34.5147 23.87 34.7732ZM33 38.9999C29.9667 38.9999 27.5 36.5332 27.5 33.4999C27.5 30.4667 29.9667 27.9999 33 27.9999C36.0332 27.9999 38.5 30.4667 38.5 33.4999C38.5 36.5332 36.0332 38.9999 33 38.9999Z" fill="#1A1A1A"/>
<path d="M34.778 31.1527L33.0001 32.9306L32.5972 32.5277C32.0596 31.9901 31.1906 31.9901 30.653 32.5277C30.1153 33.0654 30.1153 33.9344 30.653 34.472L32.028 35.847C32.2961 36.1151 32.6481 36.2499 33.0001 36.2499C33.3521 36.2499 33.7041 36.1151 33.9722 35.847L36.7222 33.097C37.2599 32.5594 37.2599 31.6904 36.7222 31.1527C36.1846 30.6151 35.3156 30.6151 34.778 31.1527Z" fill="#1A1A1A"/>
</svg>
