<svg width="20" height="20" viewBox="0 0 20 20" fill="none" xmlns="http://www.w3.org/2000/svg">
<path d="M7.49967 18.3333H14.9997C15.6913 18.3333 16.283 17.9166 16.533 17.3166L19.0497 11.4416C19.1247 11.25 19.1663 11.05 19.1663 10.8333V9.16663C19.1663 8.24996 18.4163 7.49996 17.4997 7.49996H12.2413L13.033 3.69163L13.058 3.42496C13.058 3.08329 12.9163 2.76663 12.6913 2.54163L11.808 1.66663L6.31634 7.15829C6.01634 7.45829 5.83301 7.87496 5.83301 8.33329V16.6666C5.83301 17.5833 6.58301 18.3333 7.49967 18.3333ZM7.49967 8.33329L11.1163 4.71663L9.99967 9.16663H17.4997V10.8333L14.9997 16.6666H7.49967V8.33329ZM0.833008 8.33329H4.16634V18.3333H0.833008V8.33329Z" fill="#767C8C"/>
</svg>
