<svg width="16" height="16" viewBox="0 0 16 16" fill="none" xmlns="http://www.w3.org/2000/svg">
<path d="M6.92481 11.5855C6.92481 11.7807 7.00235 11.9679 7.14035 12.1059C7.27836 12.2439 7.46554 12.3214 7.66072 12.3214C7.85589 12.3214 8.04307 12.2439 8.18108 12.1059C8.31909 11.9679 8.39662 11.7807 8.39662 11.5855V8.39662H11.5855C11.7807 8.39662 11.9679 8.31909 12.1059 8.18108C12.2439 8.04307 12.3214 7.85589 12.3214 7.66072C12.3214 7.46554 12.2439 7.27836 12.1059 7.14035C11.9679 7.00235 11.7807 6.92481 11.5855 6.92481H8.39662V3.7359C8.39662 3.54073 8.31909 3.35355 8.18108 3.21554C8.04307 3.07753 7.85589 3 7.66072 3C7.46554 3 7.27836 3.07753 7.14035 3.21554C7.00235 3.35355 6.92481 3.54073 6.92481 3.7359V6.92481H3.7359C3.54073 6.92481 3.35355 7.00235 3.21554 7.14035C3.07753 7.27836 3 7.46554 3 7.66072C3 7.85589 3.07753 8.04307 3.21554 8.18108C3.35355 8.31909 3.54073 8.39662 3.7359 8.39662H6.92481V11.5855Z" fill="#1E1E1E"/>
</svg>
