<svg width="16" height="16" viewBox="0 0 16 16" fill="none" xmlns="http://www.w3.org/2000/svg">
<path d="M4.49101 3.24544L8 6.75428L11.4908 3.26362C11.5679 3.18155 11.6608 3.1159 11.7639 3.0706C11.867 3.0253 11.9782 3.00129 12.0908 3C12.3319 3 12.5631 3.09577 12.7336 3.26625C12.9041 3.43672 12.9999 3.66794 12.9999 3.90903C13.002 4.02047 12.9813 4.13118 12.9391 4.23435C12.8969 4.33752 12.834 4.43097 12.7544 4.50898L9.21815 7.99964L12.7544 11.5358C12.9042 11.6823 12.9921 11.8808 12.9999 12.0903C12.9999 12.3313 12.9041 12.5626 12.7336 12.733C12.5631 12.9035 12.3319 12.9993 12.0908 12.9993C11.9749 13.0041 11.8593 12.9848 11.7514 12.9425C11.6434 12.9002 11.5454 12.836 11.4635 12.7538L8 9.24501L4.5001 12.7448C4.42329 12.8241 4.33153 12.8874 4.23011 12.9311C4.1287 12.9748 4.01963 12.998 3.90921 12.9993C3.66811 12.9993 3.43689 12.9035 3.26641 12.733C3.09592 12.5626 3.00015 12.3313 3.00015 12.0903C2.99803 11.9788 3.01871 11.8681 3.06091 11.7649C3.10312 11.6618 3.16597 11.5683 3.2456 11.4903L6.78185 7.99964L3.2456 4.46353C3.09577 4.31696 3.00791 4.11848 3.00015 3.90903C3.00015 3.66794 3.09592 3.43672 3.26641 3.26625C3.43689 3.09577 3.66811 3 3.90921 3C4.12739 3.00273 4.33647 3.0909 4.49101 3.24544Z" fill="#1E1E1E"/>
</svg>
